<?xml version="1.0" encoding="UTF-8"?>
<svg width="66px" height="51px" viewBox="0 0 66 51" version="1.1" xmlns="http://www.w3.org/2000/svg" xmlns:xlink="http://www.w3.org/1999/xlink">
    <!-- Generator: Sketch 63 (92445) - https://sketch.com -->
    <title>logo</title>
    <desc>Created with Sketch.</desc>
    <g id="页面-1" stroke="none" stroke-width="1" fill="none" fill-rule="evenodd">
        <g id="首页-banner" transform="translate(-361.000000, -5.000000)">
            <g id="编组-31备份" transform="translate(361.000000, 5.000000)">
                <g id="编组-14备份-3" transform="translate(0.000000, 1.000000)">
                    <g id="编组-12" transform="translate(1.100000, 11.000000)" stroke="#000000" stroke-width="1.65">
                        <circle id="椭圆形" fill="#FFB800" cx="29.26" cy="12.32" r="11.495"></circle>
                        <circle id="椭圆形" fill="#FF8900" cx="33" cy="15.4" r="8.415"></circle>
                        <path d="M19.3431374,13.8121536 C18.6441632,13.2402656 17.7920816,12.9543216 16.94,12.9543216 C16.0879184,12.9543216 15.2358368,13.2402656 14.5368626,13.8121536 L3.86140303,22.5466205 C3.69542619,22.6824198 3.59916805,22.8855478 3.59916805,23.1 C3.59916805,23.2974418 3.67919715,23.4761918 3.8085867,23.6055813 C3.93797625,23.7349709 4.11672625,23.815 4.31416805,23.815 L31.5688385,23.815 L19.3431374,13.8121536 Z" id="三角形" fill="#1C9C71"></path>
                        <path d="M43.1036467,10.4755407 C42.4256121,9.96116963 41.617806,9.70398408 40.81,9.70398408 C40.002194,9.70398408 39.1943879,9.96116963 38.5163533,10.4755407 L20.9325206,23.815 L58.5619615,23.815 C58.785631,23.815 58.996413,23.7103318 59.1315958,23.5321363 C59.250927,23.3748362 59.2952025,23.1840591 59.2703203,23.0027743 C59.2454381,22.8214895 59.151398,22.6496969 58.9940979,22.5303657 L43.1036467,10.4755407 Z" id="三角形备份-2" fill="#1C9C71"></path>
                    </g>
                    <path d="M65.1030023,44.6370619 C63.5024349,44.6064228 62.0010098,43.8557102 61.016158,42.5936398 C60.3109459,41.6009848 59.1686817,41.0113064 57.9510248,41.0113064 C56.733368,41.0113064 55.5911038,41.6009848 54.8858917,42.5936398 C53.9067107,43.85752 52.3978559,44.5972483 50.7990475,44.5972483 C49.200239,44.5972483 47.6913842,43.85752 46.7122032,42.5936398 C46.0069911,41.6009848 44.8647269,41.0113064 43.6470701,41.0113064 C42.4294132,41.0113064 41.287149,41.6009848 40.5819369,42.5936398 C39.6027559,43.85752 38.0939011,44.5972483 36.4950926,44.5972483 C34.8962841,44.5972483 33.3874294,43.85752 32.4082484,42.5936398 C31.7030363,41.6009848 30.560772,41.0113064 29.3431152,41.0113064 C28.1254584,41.0113064 26.9831942,41.6009848 26.2779821,42.5936398 C25.2988011,43.85752 23.7899463,44.5972483 22.1911378,44.5972483 C20.5923293,44.5972483 19.0834746,43.85752 18.1042936,42.5936398 C17.378434,41.6534229 16.2674706,41.0904347 15.0800289,41.0610732 C13.8925871,41.0904347 12.7816238,41.6534229 12.0557642,42.5936398 C11.0709124,43.8557102 9.56948731,44.6064228 7.96891993,44.6370619 C6.36835255,44.6064228 4.86692745,43.8557102 3.88207569,42.5936398 C3.15621608,41.6534229 2.04525271,41.0904347 0.857810953,41.0610732 C0.569591549,41.1096169 0.279973374,40.9829269 0.119988589,40.7383215 C-0.0399961962,40.4937162 -0.0399961962,40.1776006 0.119988589,39.9329952 C0.279973374,39.6883898 0.569591549,39.5616998 0.857810953,39.6102435 C2.45837833,39.6408827 3.95980343,40.3915953 4.94465519,41.6536657 C5.67051482,42.5938826 6.78147818,43.1568707 7.96891993,43.1862322 C9.15636168,43.1568707 10.267325,42.5938826 10.9931847,41.6536657 C11.9723656,40.3897854 13.4812204,39.6500572 15.0800289,39.6500572 C16.6788374,39.6500572 18.1876921,40.3897854 19.1668731,41.6536657 C19.8720852,42.6463207 21.0143495,43.2359991 22.2320063,43.2359991 C23.4496631,43.2359991 24.5919273,42.6463207 25.2971395,41.6536657 C26.2763204,40.3897854 27.7851752,39.6500572 29.3839837,39.6500572 C30.9827922,39.6500572 32.4916469,40.3897854 33.4708279,41.6536657 C34.17604,42.6463207 35.3183043,43.2359991 36.5359611,43.2359991 C37.7536179,43.2359991 38.8958821,42.6463207 39.6010943,41.6536657 C40.5802752,40.3897854 42.08913,39.6500571 43.6879385,39.6500571 C45.286747,39.6500571 46.7956018,40.3897854 47.7747827,41.6536657 C48.4799949,42.6463207 49.6222591,43.235999 50.8399159,43.235999 C52.0575727,43.235999 53.1998369,42.6463207 53.905049,41.6536657 C54.88423,40.3897854 56.3930848,39.6500571 57.9918933,39.6500571 C59.5907018,39.6500571 61.0995566,40.3897854 62.0787375,41.6536657 C62.8064987,42.5915813 63.9162918,43.1539764 65.1030023,43.1862322 C65.3912216,43.1376885 65.6808398,43.2643786 65.8408245,43.5089839 C66.0008093,43.7535893 66.0008093,44.0697048 65.8408245,44.3143102 C65.6808398,44.5589155 65.3912216,44.6856056 65.1030023,44.6370619 L65.1030023,44.6370619 Z" id="路径备份-4" fill="#000000" fill-rule="nonzero"></path>
                    <path d="M64.8586444,49.0268184 C63.2580771,48.9961792 61.756652,48.2454667 60.7718002,46.9833963 C60.0665881,45.9907412 58.9243239,45.4010628 57.706667,45.4010628 C56.4890102,45.4010628 55.346746,45.9907412 54.6415338,46.9833963 C53.6623529,48.2472765 52.1534981,48.9870048 50.5546896,48.9870048 C48.9558811,48.9870048 47.4470264,48.2472765 46.4678454,46.9833963 C45.7626333,45.9907412 44.6203691,45.4010628 43.4027122,45.4010628 C42.1850554,45.4010628 41.0427912,45.9907412 40.3375791,46.9833963 C39.3583981,48.2472765 37.8495433,48.9870048 36.2507348,48.9870048 C34.6519263,48.9870048 33.1430715,48.2472765 32.1638906,46.9833963 C31.4586784,45.9907413 30.3164142,45.4010629 29.0987574,45.4010629 C27.8811006,45.4010629 26.7388364,45.9907413 26.0336243,46.9833963 C25.0544433,48.2472765 23.5455885,48.9870048 21.94678,48.9870048 C20.3479715,48.9870048 18.8391167,48.2472765 17.8599358,46.9833963 C17.1340762,46.0431794 16.0231128,45.4801912 14.835671,45.4508297 C13.6482293,45.4801912 12.537266,46.0431794 11.8114064,46.9833963 C10.8265546,48.2454667 9.32512949,48.9961792 7.72456211,49.0268184 C6.12399473,48.9961792 4.62256963,48.2454667 3.63771787,46.9833963 C2.91185825,46.0431794 1.80089488,45.4801912 0.61345313,45.4508297 C0.259311332,45.391183 1.75859327e-13,45.0845446 1.75859327e-13,44.7254149 C1.75859327e-13,44.3662852 0.259311332,44.0596467 0.61345313,44 C2.21402051,44.0306392 3.71544561,44.7813517 4.70029737,46.0434221 C5.42615698,46.983639 6.53712035,47.5466272 7.72456211,47.5759887 C8.91200387,47.5466272 10.0229672,46.983639 10.7488268,46.0434221 C11.7280078,44.7795419 13.2368626,44.0398136 14.8356711,44.0398136 C16.4344796,44.0398136 17.9433343,44.7795419 18.9225153,46.0434221 C19.6277274,47.0360771 20.7699916,47.6257556 21.9876485,47.6257556 C23.2053053,47.6257556 24.3475695,47.0360771 25.0527816,46.0434221 C26.0319626,44.7795419 27.5408174,44.0398136 29.1396259,44.0398136 C30.7384343,44.0398136 32.2472891,44.7795419 33.2264701,46.0434221 C33.9316822,47.0360771 35.0739464,47.6257556 36.2916033,47.6257556 C37.5092601,47.6257556 38.6515243,47.0360771 39.3567364,46.0434221 C40.3359174,44.7795419 41.8447722,44.0398136 43.4435807,44.0398136 C45.0423892,44.0398136 46.551244,44.7795419 47.5304249,46.0434221 C48.2356371,47.0360771 49.3779013,47.6257555 50.5955581,47.6257555 C51.8132149,47.6257555 52.9554791,47.0360771 53.6606912,46.0434221 C54.6398722,44.7795419 56.148727,44.0398136 57.7475355,44.0398136 C59.346344,44.0398136 60.8551987,44.7795419 61.8343797,46.0434221 C62.5621409,46.9813378 63.671934,47.5437329 64.8586444,47.5759887 C65.1468639,47.527445 65.436482,47.654135 65.5964668,47.8987404 C65.7564516,48.1433458 65.7564516,48.4594613 65.5964668,48.7040667 C65.436482,48.9486721 65.1468639,49.0753621 64.8586444,49.0268184 L64.8586444,49.0268184 Z" id="路径备份-5" fill="#000000" fill-rule="nonzero"></path>
                </g>
                <line x1="16.5" y1="18.16" x2="9.9" y2="18.16" id="路径-9" stroke="#000000" stroke-width="1.65" stroke-linecap="round"></line>
                <line x1="22" y1="12" x2="17.3056641" y2="7.6" id="路径-10" stroke="#000000" stroke-width="1.65" stroke-linecap="round"></line>
                <line x1="29.7" y1="7.6" x2="29.4668142" y2="1" id="路径-11" stroke="#000000" stroke-width="1.65" stroke-linecap="round"></line>
                <line x1="38.5" y1="8.99726339" x2="42.7995961" y2="4.3" id="路径-12" stroke="#000000" stroke-width="1.65" stroke-linecap="round"></line>
                <line x1="44" y1="16.4" x2="49.7223633" y2="16.4" id="路径-13" stroke="#000000" stroke-width="1.65" stroke-linecap="round"></line>
            </g>
        </g>
    </g>
</svg>