<?xml version="1.0" encoding="UTF-8"?>
<svg width="114px" height="16px" viewBox="0 0 114 16" version="1.1" xmlns="http://www.w3.org/2000/svg" xmlns:xlink="http://www.w3.org/1999/xlink">
    <!-- Generator: Sketch 63 (92445) - https://sketch.com -->
    <title>Treasureland</title>
    <desc>Created with Sketch.</desc>
    <g id="页面-1" stroke="none" stroke-width="1" fill="none" fill-rule="evenodd">
        <g id="首页-banner" transform="translate(-437.000000, -23.000000)" fill="#000000" fill-rule="nonzero">
            <g id="编组-11" transform="translate(437.000000, 23.000000)">
                <path d="M7.88085938,15 L7.88085938,3.79882812 L12.3632812,3.79882812 L12.3632812,0.83984375 L0,0.83984375 L0,3.79882812 L4.50195312,3.79882812 L4.50195312,15 L7.88085938,15 Z M13.984375,15 L13.984375,11.1621094 C13.984375,10.328776 14.148763,9.8030599 14.4775391,9.58496094 C14.8063151,9.36686198 15.4492188,9.2578125 16.40625,9.2578125 L16.40625,9.2578125 L17.0703125,9.2578125 L17.0703125,5.9765625 L16.8261719,5.9765625 C16.1230469,5.9765625 15.5354818,6.11653646 15.0634766,6.39648438 C14.5914714,6.67643229 14.1796875,7.12565104 13.828125,7.74414062 L13.828125,7.74414062 L13.7695312,6.20117188 L10.9082031,6.20117188 L10.9082031,15 L13.984375,15 Z M23.0273438,15.4003906 C23.6197917,15.4003906 24.2057292,15.3320312 24.7851562,15.1953125 C25.3645833,15.0585938 25.953776,14.8470052 26.5527344,14.5605469 L26.5527344,14.5605469 L26.8945312,11.8554688 C26.2434896,12.265625 25.6233724,12.5748698 25.0341797,12.7832031 C24.444987,12.9915365 23.9095052,13.0957031 23.4277344,13.0957031 C22.7441406,13.0957031 22.1777344,12.9117839 21.7285156,12.5439453 C21.2792969,12.1761068 21.031901,11.6959635 20.9863281,11.1035156 L20.9863281,11.1035156 L26.9921875,10.9375 L27.265625,10.5371094 L27.2753906,10.4785156 C27.3014323,10.094401 27.3144531,9.81445312 27.3144531,9.63867188 C27.3144531,8.50585938 26.9287109,7.58300781 26.1572266,6.87011719 C25.3857422,6.15722656 24.3977865,5.80078125 23.1933594,5.80078125 C21.7871094,5.80078125 20.5924479,6.2874349 19.609375,7.26074219 C18.6263021,8.23404948 18.1347656,9.42708333 18.1347656,10.8398438 C18.1347656,12.1940104 18.5839844,13.2926432 19.4824219,14.1357422 C20.3808594,14.9788411 21.5625,15.4003906 23.0273438,15.4003906 Z M21.0546875,9.77539062 C21.1588542,9.19596354 21.3964844,8.74511719 21.7675781,8.42285156 C22.1386719,8.10058594 22.6009115,7.93945312 23.1542969,7.93945312 C23.6490885,7.93945312 24.0592448,8.0875651 24.3847656,8.38378906 C24.7102865,8.68001302 24.8730469,9.05924479 24.8730469,9.52148438 L24.8730469,9.52148438 L24.8730469,9.65820312 L21.0546875,9.77539062 Z M35.1074219,15.4199219 L37.9492188,14.6386719 C37.8971354,14.3066406 37.8580729,13.90625 37.8320312,13.4375 C37.8059896,12.96875 37.7929688,12.3893229 37.7929688,11.6992188 L37.7929688,11.6992188 L37.7929688,6.20117188 L35.1757812,6.29882812 C34.7721354,6.12304688 34.4042969,5.99283854 34.0722656,5.90820312 C33.7402344,5.82356771 33.421224,5.78125 33.1152344,5.78125 C31.7936198,5.78125 30.6998698,6.24348958 29.8339844,7.16796875 C28.968099,8.09244792 28.5351562,9.26432292 28.5351562,10.6835938 C28.5351562,12.03125 28.9208984,13.1575521 29.6923828,14.0625 C30.4638672,14.9674479 31.4160156,15.4199219 32.5488281,15.4199219 C32.952474,15.4199219 33.3382161,15.3515625 33.7060547,15.2148438 C34.0738932,15.078125 34.4498698,14.8665365 34.8339844,14.5800781 L34.8339844,14.5800781 L35.1074219,15.4199219 Z M33.4472656,13.1152344 C32.9459635,13.1152344 32.5211589,12.8857422 32.1728516,12.4267578 C31.8245443,11.9677734 31.6503906,11.3932292 31.6503906,10.703125 C31.6503906,9.96744792 31.8489583,9.35709635 32.2460938,8.87207031 C32.6432292,8.38704427 33.1315104,8.14453125 33.7109375,8.14453125 C33.8736979,8.14453125 34.0380859,8.16731771 34.2041016,8.21289062 C34.3701172,8.25846354 34.5442708,8.33333333 34.7265625,8.4375 L34.7265625,8.4375 L34.7265625,12.4609375 C34.4986979,12.6822917 34.2789714,12.8466797 34.0673828,12.9541016 C33.8557943,13.0615234 33.6490885,13.1152344 33.4472656,13.1152344 Z M43.2324219,15.4199219 C44.3326823,15.4199219 45.2018229,15.1383464 45.8398438,14.5751953 C46.4778646,14.0120443 46.796875,13.2454427 46.796875,12.2753906 C46.796875,11.6048177 46.6194661,11.0611979 46.2646484,10.6445312 C45.9098307,10.2278646 45.3190104,9.87304688 44.4921875,9.58007812 L44.4921875,9.58007812 L43.4375,9.19921875 C43.0664062,9.07552083 42.8271484,8.95996094 42.7197266,8.85253906 C42.6123047,8.74511719 42.5585938,8.60026042 42.5585938,8.41796875 C42.5585938,8.203125 42.6529948,8.02571615 42.8417969,7.88574219 C43.030599,7.74576823 43.2747396,7.67578125 43.5742188,7.67578125 C43.9778646,7.67578125 44.4108073,7.77018229 44.8730469,7.95898438 C45.3352865,8.14778646 45.7617188,8.40820312 46.1523438,8.74023438 L46.1523438,8.74023438 L46.5332031,6.6015625 C45.8821615,6.32161458 45.2913411,6.11490885 44.7607422,5.98144531 C44.2301432,5.84798177 43.7272135,5.78125 43.2519531,5.78125 C42.2233073,5.78125 41.3997396,6.04980469 40.78125,6.58691406 C40.1627604,7.12402344 39.8535156,7.83528646 39.8535156,8.72070312 C39.8535156,9.34570312 40.0455729,9.88769531 40.4296875,10.3466797 C40.8138021,10.8056641 41.3769531,11.1621094 42.1191406,11.4160156 L42.1191406,11.4160156 L43.2519531,11.8164062 C43.5839844,11.9335938 43.8183594,12.0572917 43.9550781,12.1875 C44.0917969,12.3177083 44.1601562,12.4804688 44.1601562,12.6757812 C44.1601562,12.9036458 44.0625,13.0875651 43.8671875,13.2275391 C43.671875,13.367513 43.4147135,13.4375 43.0957031,13.4375 C42.7311198,13.4375 42.3339844,13.351237 41.9042969,13.1787109 C41.4746094,13.0061849 40.8723958,12.672526 40.0976562,12.1777344 L40.0976562,12.1777344 L40.0976562,14.5996094 C40.6184896,14.8795573 41.1376953,15.086263 41.6552734,15.2197266 C42.1728516,15.3531901 42.6985677,15.4199219 43.2324219,15.4199219 Z M54.53125,15.4199219 L57.3535156,15 L57.3535156,6.20117188 L54.3164062,6.20117188 L54.3164062,10.7226562 C54.3164062,11.3997396 54.1731771,11.9189453 53.8867188,12.2802734 C53.6002604,12.6416016 53.1901042,12.8222656 52.65625,12.8222656 C52.2851562,12.8222656 52.0052083,12.7034505 51.8164062,12.4658203 C51.6276042,12.2281901 51.5332031,11.8782552 51.5332031,11.4160156 L51.5332031,11.4160156 L51.5332031,6.20117188 L48.4765625,6.20117188 L48.4765625,12.2753906 C48.4765625,13.3040365 48.7190755,14.0852865 49.2041016,14.6191406 C49.6891276,15.1529948 50.3971354,15.4199219 51.328125,15.4199219 C51.9466146,15.4199219 52.516276,15.2799479 53.0371094,15 C53.5579427,14.7200521 54.0559896,14.2871094 54.53125,13.7011719 L54.53125,13.7011719 L54.53125,15.4199219 Z M62.7246094,15 L62.7246094,11.1621094 C62.7246094,10.328776 62.8889974,9.8030599 63.2177734,9.58496094 C63.5465495,9.36686198 64.1894531,9.2578125 65.1464844,9.2578125 L65.1464844,9.2578125 L65.8105469,9.2578125 L65.8105469,5.9765625 L65.5664062,5.9765625 C64.8632812,5.9765625 64.2757161,6.11653646 63.8037109,6.39648438 C63.3317057,6.67643229 62.9199219,7.12565104 62.5683594,7.74414062 L62.5683594,7.74414062 L62.5097656,6.20117188 L59.6484375,6.20117188 L59.6484375,15 L62.7246094,15 Z M71.7675781,15.4003906 C72.360026,15.4003906 72.9459635,15.3320312 73.5253906,15.1953125 C74.1048177,15.0585938 74.6940104,14.8470052 75.2929688,14.5605469 L75.2929688,14.5605469 L75.6347656,11.8554688 C74.983724,12.265625 74.3636068,12.5748698 73.7744141,12.7832031 C73.1852214,12.9915365 72.6497396,13.0957031 72.1679688,13.0957031 C71.484375,13.0957031 70.9179688,12.9117839 70.46875,12.5439453 C70.0195312,12.1761068 69.7721354,11.6959635 69.7265625,11.1035156 L69.7265625,11.1035156 L75.7324219,10.9375 L76.0058594,10.5371094 L76.015625,10.4785156 C76.0416667,10.094401 76.0546875,9.81445312 76.0546875,9.63867188 C76.0546875,8.50585938 75.6689453,7.58300781 74.8974609,6.87011719 C74.1259766,6.15722656 73.1380208,5.80078125 71.9335938,5.80078125 C70.5273438,5.80078125 69.3326823,6.2874349 68.3496094,7.26074219 C67.3665365,8.23404948 66.875,9.42708333 66.875,10.8398438 C66.875,12.1940104 67.3242188,13.2926432 68.2226562,14.1357422 C69.1210938,14.9788411 70.3027344,15.4003906 71.7675781,15.4003906 Z M69.7949219,9.77539062 C69.8990885,9.19596354 70.1367188,8.74511719 70.5078125,8.42285156 C70.8789062,8.10058594 71.3411458,7.93945312 71.8945312,7.93945312 C72.3893229,7.93945312 72.7994792,8.0875651 73.125,8.38378906 C73.4505208,8.68001302 73.6132812,9.05924479 73.6132812,9.52148438 L73.6132812,9.52148438 L73.6132812,9.65820312 L69.7949219,9.77539062 Z M80.8300781,15 L80.8300781,0.64453125 L77.734375,1.06445312 L77.734375,15 L80.8300781,15 Z M89.1699219,15.4199219 L92.0117188,14.6386719 C91.9596354,14.3066406 91.9205729,13.90625 91.8945312,13.4375 C91.8684896,12.96875 91.8554688,12.3893229 91.8554688,11.6992188 L91.8554688,11.6992188 L91.8554688,6.20117188 L89.2382812,6.29882812 C88.8346354,6.12304688 88.4667969,5.99283854 88.1347656,5.90820312 C87.8027344,5.82356771 87.483724,5.78125 87.1777344,5.78125 C85.8561198,5.78125 84.7623698,6.24348958 83.8964844,7.16796875 C83.030599,8.09244792 82.5976562,9.26432292 82.5976562,10.6835938 C82.5976562,12.03125 82.9833984,13.1575521 83.7548828,14.0625 C84.5263672,14.9674479 85.4785156,15.4199219 86.6113281,15.4199219 C87.014974,15.4199219 87.4007161,15.3515625 87.7685547,15.2148438 C88.1363932,15.078125 88.5123698,14.8665365 88.8964844,14.5800781 L88.8964844,14.5800781 L89.1699219,15.4199219 Z M87.5097656,13.1152344 C87.0084635,13.1152344 86.5836589,12.8857422 86.2353516,12.4267578 C85.8870443,11.9677734 85.7128906,11.3932292 85.7128906,10.703125 C85.7128906,9.96744792 85.9114583,9.35709635 86.3085938,8.87207031 C86.7057292,8.38704427 87.1940104,8.14453125 87.7734375,8.14453125 C87.9361979,8.14453125 88.1005859,8.16731771 88.2666016,8.21289062 C88.4326172,8.25846354 88.6067708,8.33333333 88.7890625,8.4375 L88.7890625,8.4375 L88.7890625,12.4609375 C88.5611979,12.6822917 88.3414714,12.8466797 88.1298828,12.9541016 C87.9182943,13.0615234 87.7115885,13.1152344 87.5097656,13.1152344 Z M97.2558594,15 L97.2558594,10.6640625 C97.2558594,9.98046875 97.3990885,9.45963542 97.6855469,9.1015625 C97.9720052,8.74348958 98.3821615,8.56445312 98.9160156,8.56445312 C99.2871094,8.56445312 99.5670573,8.68164062 99.7558594,8.91601562 C99.9446615,9.15039062 100.039062,9.49869792 100.039062,9.9609375 L100.039062,9.9609375 L100.039062,15 L103.076172,15 L103.076172,9.1015625 C103.076172,8.07291667 102.835286,7.29166667 102.353516,6.7578125 C101.871745,6.22395833 101.165365,5.95703125 100.234375,5.95703125 C99.6158854,5.95703125 99.0429688,6.09863281 98.515625,6.38183594 C97.9882812,6.66503906 97.4902344,7.09635417 97.0214844,7.67578125 L97.0214844,7.67578125 L97.0214844,6.20117188 L94.1992188,6.20117188 L94.1992188,15 L97.2558594,15 Z M111.357422,15.4199219 L114.042969,15 L114.042969,0.64453125 L110.976562,1.06445312 L110.976562,6.20117188 C110.690104,6.07096354 110.403646,5.9749349 110.117188,5.91308594 C109.830729,5.85123698 109.53125,5.8203125 109.21875,5.8203125 C107.884115,5.8203125 106.811523,6.27604167 106.000977,7.1875 C105.19043,8.09895833 104.785156,9.30989583 104.785156,10.8203125 C104.785156,12.2591146 105.130208,13.3854167 105.820312,14.1992188 C106.510417,15.0130208 107.470703,15.4199219 108.701172,15.4199219 C109.130859,15.4199219 109.554036,15.3645833 109.970703,15.2539062 C110.38737,15.1432292 110.810547,14.9707031 111.240234,14.7363281 L111.240234,14.7363281 L111.357422,15.4199219 Z M109.697266,13.1152344 C109.195964,13.1152344 108.771159,12.8857422 108.422852,12.4267578 C108.074544,11.9677734 107.900391,11.3932292 107.900391,10.703125 C107.900391,9.96744792 108.098958,9.35709635 108.496094,8.87207031 C108.893229,8.38704427 109.38151,8.14453125 109.960938,8.14453125 C110.123698,8.14453125 110.288086,8.16731771 110.454102,8.21289062 C110.620117,8.25846354 110.794271,8.33333333 110.976562,8.4375 L110.976562,8.4375 L110.976562,12.6171875 C110.742188,12.7864583 110.519206,12.9117839 110.307617,12.9931641 C110.096029,13.0745443 109.892578,13.1152344 109.697266,13.1152344 Z" id="Treasureland"></path>
            </g>
        </g>
    </g>
</svg>